<!-- Generator: Adobe Illustrator 22.1.0, SVG Export Plug-In  -->
<svg version="1.1"
	 xmlns="http://www.w3.org/2000/svg" xmlns:xlink="http://www.w3.org/1999/xlink" xmlns:a="http://ns.adobe.com/AdobeSVGViewerExtensions/3.0/"
	 x="0px" y="0px" width="340px" height="383.4px" viewBox="0 0 340 383.4" style="enable-background:new 0 0 340 383.4;"
	 xml:space="preserve">
<style type="text/css">
	.st0{fill:#06E0B7;}
	.st1{fill:#17C7CB;}
	.st2{fill:#F7CC7F;}
	.st3{fill:#F4B94F;}
	.st4{fill:#FFFFFF;}
	.st5{fill:#FD726D;}
	.st6{fill:#F7A491;}
	.st7{fill:#2DA8E3;}
	.st8{fill:#184655;}
	.st9{fill:#4F6174;}
	.st10{fill:#F48C7F;}
	.st11{fill:#F8A492;}
</style>
<defs>
</defs>
<g>
	<g>
		<path class="st0" d="M275.4,380H172.2c-3.3,0-6-2.7-6-6l0,0c0-3.3,2.7-6,6-6h103.1c3.3,0,6,2.7,6,6l0,0
			C281.3,377.3,278.6,380,275.4,380z"/>
		<path class="st1" d="M293.4,368.4H190.3c-3.3,0-6-2.7-6-6l0,0c0-3.3,2.7-6,6-6h103.1c3.3,0,6,2.7,6,6l0,0
			C299.4,365.8,296.7,368.4,293.4,368.4z"/>
		<path class="st0" d="M279,357.5H175.8c-3.3,0-6-2.7-6-6l0,0c0-3.3,2.7-6,6-6H279c3.3,0,6,2.7,6,6l0,0
			C284.9,354.8,282.3,357.5,279,357.5z"/>
		<path class="st1" d="M266.9,345.6H163.8c-3.3,0-6-2.7-6-6l0,0c0-3.3,2.7-6,6-6h103.1c3.3,0,6,2.7,6,6l0,0
			C272.9,342.9,270.2,345.6,266.9,345.6z"/>
		<g>
			<circle class="st2" cx="288.4" cy="331.9" r="51.6"/>
			<circle class="st3" cx="288.4" cy="331.9" r="43.3"/>
			<g>
				<path class="st4" d="M275,359.7l2.5-6.8c-3-1.2-5.8-2.9-8-4.6c-1.8-1.4-2.2-4-0.9-5.9l0.2-0.2c1.4-2.1,4.4-2.6,6.4-1
					c2,1.6,4.5,3.1,7.3,4.1c4.1,1.5,7.4,0.9,8.5-1.9c1-2.7-0.7-5.3-5.3-9c-6.7-5.3-10.6-10.8-8.1-17.7c2.3-6.3,8.5-9.6,16.7-8.3
					l2.5-6.8l7,2.5l-2.3,6.3c2.6,1.1,4.6,2.2,6.2,3.3c2,1.4,2.5,4.1,1.1,6.1l0,0c-1.4,2.1-4.2,2.5-6.2,1.1c-1.5-1.1-3.4-2.3-6-3.2
					c-4.6-1.7-6.9-0.2-7.6,1.8c-0.9,2.4,1.1,4.8,6.3,9.3c7.4,6.1,9.4,11.3,7.1,17.7c-2.3,6.4-8.8,10.2-17.5,8.6l-2.6,7.3L275,359.7z
					"/>
			</g>
		</g>
	</g>
	<path class="st2" d="M188.2,379.9H67c-4.8,0-8.7-3.9-8.7-8.7l0,0c0-4.8,3.9-8.7,8.7-8.7h121.1c4.8,0,8.7,3.9,8.7,8.7l0,0
		C196.9,376,193,379.9,188.2,379.9z"/>
	<path class="st3" d="M206.4,362.6h-114c-4.8,0-8.7-3.9-8.7-8.7l0,0c0-4.8,3.9-8.7,8.7-8.7h114c4.8,0,8.7,3.9,8.7,8.7l0,0
		C215.1,358.7,211.2,362.6,206.4,362.6z"/>
	<path class="st2" d="M189.9,345.1H81.2c-4.8,0-8.7-3.9-8.7-8.7v0c0-4.8,3.9-8.7,8.7-8.7h108.7c4.8,0,8.7,3.9,8.7,8.7v0
		C198.7,341.2,194.7,345.1,189.9,345.1z"/>
	<path class="st3" d="M189.7,327.7H80.8c-4.8,0-8.7-3.9-8.7-8.7l0,0c0-4.8,3.9-8.7,8.7-8.7h108.9c4.8,0,8.7,3.9,8.7,8.7l0,0
		C198.4,323.8,194.5,327.7,189.7,327.7z"/>
	<path class="st2" d="M193.6,311.2H83c-4.8,0-8.7-3.9-8.7-8.7l0,0c0-4.8,3.9-8.7,8.7-8.7h110.6c4.8,0,8.7,3.9,8.7,8.7l0,0
		C202.4,307.3,198.4,311.2,193.6,311.2z"/>
	<path class="st3" d="M188.8,294H78.2c-4.8,0-8.7-3.9-8.7-8.7l0,0c0-4.8,3.9-8.7,8.7-8.7h110.6c4.8,0,8.7,3.9,8.7,8.7l0,0
		C197.6,290.1,193.7,294,188.8,294z"/>
	<path class="st3" d="M194.2,260.2H88.6c-4.8,0-8.7-3.9-8.7-8.7v0c0-4.8,3.9-8.7,8.7-8.7h105.6c4.8,0,8.7,3.9,8.7,8.7v0
		C203,256.3,199,260.2,194.2,260.2z"/>
	<path class="st2" d="M203.6,277H102.4c-4.8,0-8.7-3.9-8.7-8.7v0c0-4.8,3.9-8.7,8.7-8.7h101.1c4.8,0,8.7,3.9,8.7,8.7v0
		C212.3,273.1,208.4,277,203.6,277z"/>

		<ellipse transform="matrix(0.7962 -0.6051 0.6051 0.7962 -189.8925 98.545)" class="st5" cx="51.3" cy="331.1" rx="51.3" ry="51.3"/>
	<path class="st2" d="M80.5,299.5c17.5,16.1,18.6,43.4,2.5,60.8c-16.1,17.5-43.4,18.6-60.8,2.5c-17.5-16.1-18.6-43.4-2.5-60.8
		C35.8,284.4,63,283.3,80.5,299.5z"/>
	<path class="st4" d="M79.6,344.6c1,1.3,0.9,3.1-0.2,4.3c-2.1,2.4-5.6,5.3-10,7.4c-6.4,3.1-13.8,4.1-20.7,1.7
		c-4.3-1.5-8.5-4.5-11.6-8.6l-3.8,1.9c-1.3,0.6-2.8,0.1-3.5-1.2l0-0.1c-0.6-1.3-0.1-2.8,1.2-3.5l3.1-1.5c-0.6-1-1.1-1.7-1.3-2.2
		c-0.5-1-1-2.2-1.4-3.5l-3.2,1.6c-1.3,0.6-2.8,0.1-3.5-1.2l0,0c-0.6-1.3-0.1-2.8,1.2-3.5l3.9-1.9c-1.1-5-0.9-10,0.5-14.4
		c2.5-7.4,8.1-13,14.8-16.3c3.9-1.9,7.2-2.7,9.9-3c1.9-0.2,3.6,1.1,3.8,3l0,0.1c0.3,1.9-1.1,3.7-3,4c-2.2,0.3-4.8,1-7.7,2.4
		c-4.3,2.1-7.9,5.6-9.7,10.5c-1,2.9-1.3,6.3-0.3,9.5L60,319.4c1.3-0.6,2.8-0.1,3.5,1.2l0,0c0.6,1.3,0.1,2.8-1.2,3.5l-22.8,11.2
		c0.4,1.1,0.9,2.2,1.2,2.9c0.4,0.9,0.9,1.7,1.5,2.9l22.9-11.2c1.3-0.6,2.9-0.1,3.5,1.2l0,0c0.6,1.3,0.1,2.9-1.2,3.5l-21.9,10.7
		c2.1,2.5,4.6,4.2,7.2,5.1c5.2,1.7,9.7,1.1,14.6-1.2c3-1.5,5.4-3.3,7.1-5C75.9,342.7,78.3,342.9,79.6,344.6L79.6,344.6z"/>
	<g>
		<path class="st6" d="M186.7,115.8c0,0,0.6-1.2,0.6-4.1c0-3.5-0.8-8.9-0.9-9.3c-0.3-0.9,11.2-4.4,11.2-4.4s18.3-0.9,21-3
			c2.7-2,5-2.9,3.7-0.8c-2.3,3.8-7.7,9.5-8.9,10.2c-1.2,0.8-15.4,4.3-15.7,4.3c-0.3,0-0.2,8.9-0.2,8.9L186.7,115.8z"/>
		<g>
			<path class="st7" d="M198.6,112c0,0-11.9-2-12.1-0.8c-4.8,26.2-5.6,34.9-6.1,35.2c-1.8,0.9-27.6-21.7-31.9-23.2
				c-2-0.7-4.3-0.6-6.4-0.5c-5.1,0.1-3.4,0-6,0.2l0,0c-0.1,0-0.2,0-0.2,0l0,4.8c5.7,5.1,18.8,83.1,19.9,83
				c1.2-0.1,27.1,6.5,26.7,4.3c-0.1-0.4-17.5-14.6-22.5-35.3c-1.7-6.9-2.5-14.4-3.4-20.9c5.7,2.9,28.2,13.9,31.8,12.5
				C199.3,166.6,198.6,112,198.6,112z"/>
			<path class="st6" d="M243.1,250.4c0,0,24.1,18.9,24.9,22.2c1.2,4.8,23.2-1.5,17.9-2.5c-1.2-0.2-5.1-1.2-5.5-1.4
				c-1.7-0.9-23.1-26.7-23.1-26.7L243.1,250.4z"/>
			<path class="st8" d="M296.2,270.1l-15.4-1.3c0,0-4.4,3.6-12.8,3.8c0,0-1.3,3.9-0.7,8.4c0.1,0.8,0.2,3.1,1,3.1
				c2.8-0.2,10.4-2.1,19-3.8c0,0,11.6-2.5,18.3-6.5C312.3,269.8,296.2,270.1,296.2,270.1z"/>
			<path class="st9" d="M135.2,203.1c0,0,17.6,3,37.1-1.6c22.6-5.3,47.5-10.2,54.8-5.9c5.9,3.4,42.6,58.9,42.6,58.9l-14.2,10.4
				l-40.5-45.3c0,0-51.6,19-63.2,16.9C125.6,231.7,125.2,210.6,135.2,203.1z"/>
			<path class="st6" d="M190.4,287.6c0,0-1.1,29.1-1.7,34c-0.7,4.9,12.4,19.7,10.7,14.6c-0.4-1.2-1.4-5.1-1.4-5.5
				c0-2,4.8-35.2,4.8-35.2L190.4,287.6z"/>
			<path class="st8" d="M204.2,345.3l-6.2-14.1c0,0-5.3-2.1-9.4-9.5c0,0-4,0.6-7.7,3.4c-0.6,0.5-4.9,3.6-4.6,4.3
				c1.1,2.7,7,8.4,13.4,14.7c0,0,9.1,7.3,15.8,11.3C212.1,359.3,204.2,345.3,204.2,345.3z"/>
			<path class="st9" d="M218.9,230.2c-6.2-8.2-55.9-16-55.9-16l-13.9-26.7l-30.7,18.9c0,0,3.1,24.4,5.4,30.9
				c3.1,8.7,23.7,9.1,36.3,9c11.6-0.1,32.7,2.2,32.7,2.2l-7.2,63.1c0,0,14.1,3.2,18,2.7C204.2,314.4,226.6,240.4,218.9,230.2z"/>
			<path class="st4" d="M136,122.8l-17.3,0.9c0,0-0.4,0.1-0.5,0.2c-1.4,0.3-0.1,50.7,1.1,69.5c1.3,18.8,3.8,26.8,3.8,26.8
				s23.5-4.2,30.7-7c3-1.2,10.2-10.2,10.2-10.2s-7.4-9.9-11.1-26.1c-2.9-12.5-6.4-34.5-8.4-39.1C139.8,127.3,136,122.8,136,122.8z"
				/>
		</g>
		<path class="st6" d="M119.2,108.5l-0.5,15.3c0,0,11.2,19.3,17,16.6c4.8-2.3,0.5-16.9,0.5-16.9s-0.8-3.4-2-7.2
			c-0.8-2.7-1.5-5.6-1.4-7.8C132.8,103.2,119.2,108.5,119.2,108.5z"/>
		<g>
			<path class="st8" d="M132.5,73.7c0,0,5.7,8.6,6.1,15.8c0.4,7.2-1.1,12.2-1.1,12.2l-18.3-21.9L132.5,73.7z"/>
			<path class="st10" d="M140.6,88c0.3,2.5-0.7,4.7-2.2,4.9c-1.5,0.2-2.9-1.8-3.1-4.3c-0.3-2.5,0.7-4.7,2.2-4.9
				C138.9,83.6,140.3,85.5,140.6,88z"/>
			<path class="st6" d="M113.3,83.3c-0.4-0.1-0.4,21,5.7,26c6.1,5,16.7,5.4,19.9,0.4c3.4-5.5,0.2-27.7-8.9-32.5
				C120.9,72.5,113.3,83.3,113.3,83.3z"/>
			<path class="st8" d="M111.8,70.2c-4.7,4.1-6.9,7.1-10.1,14.4c-3.9,8.9,3.8,18.2,10.3,21.9c6.5,3.7,7,8.2,7,8.2l0.3-2.8
				c0.3-2.2-0.4-3.4-1-4.8c-0.5-1.2-2.3-5.2-3-6.3c-1.8-2.8-2.2-3.4-1.3-6.1c0.7-2.1-0.1-6.6,1-9.9l8.7-1.9c0,0,5.4-1.3,8.2-4.5
				C139.7,69.4,124.1,59.2,111.8,70.2z"/>
			<path class="st6" d="M116,97.1c1.1,2.3,0.8,4.7-0.5,5.3c-1.3,0.6-3.3-0.7-4.4-3.1c-1.1-2.3-0.8-4.7,0.5-5.3
				C113,93.4,114.9,94.8,116,97.1z"/>
		</g>
		<path class="st11" d="M56.8,38.9c1,4.1,2.8,10.5,2.8,10.5c-0.1,1.8-0.7,9.1-1.3,18.1l13.2-5.3c0,0-0.2-14.7,0.4-15.6
			c0.5-0.8,1.3,0.2,5.4-5.6c1.2-1.7,1.4-4.7,1.4-4.7s0.2-3.7-0.6-4c-0.8-0.3-1.8,0.2-2.1,0.8c-0.3,0.6-0.2,2.1-0.5,2.8
			c-0.3,0.6-2.2,1.4-3,1.4c-0.8,0,0.1-10.9,0.1-10.9s0.4-3.1,0.7-4.1c0.2-0.9,1-3.4,1-3.4s0.9-3.7-0.2-3.9c-0.7-0.2-2.4,2.8-3.5,6
			c-1.3,3.4-2,7-2.3,6.9c-0.8-0.1-0.4-6.1-0.4-6.1s0.8-2.7,0.8-4c0.8-1.6,1.3-4.5-0.1-4.7c-0.3,0-2.1,3.7-2.1,3.7s-0.7,2.6-1.1,3.8
			c-0.7,2.2-0.9,5.6-1.2,7.1c-0.3,1.2-0.6,0.7-0.7,0.8c-0.1,0,0.1-1.7,0.3-4c0.1-1.2,0-2.6,0.3-3.9c0.3-1.3,0.5-3.1,0.6-4.1
			c0.2-3.1-1.7-2.8-2.4,0.1c-0.3,1.1-0.5,2.2-0.8,3.4c-1,4.6-1,9.1-1.5,9.1c-0.6,0-0.2-8-0.2-8s-1-4.5-2-0.3c-1.1,4.8-1,8.8-1,8.9
			C56.6,30.7,55.8,34.9,56.8,38.9z"/>
		<path class="st7" d="M118.6,123.8c0,0-17.1-0.8-21.6-2.8c-2.7-1.2-24.7-19-24.7-19l0.2-47.6l-15.5-1.2c0,0-8,52.6-5.3,58.3
			c2.9,5.9,35.1,30.4,41.6,41c3.7,6.1,11.5,89.3,12.6,90.1c8.4,4.3,34.1,8.7,33.5,6C122.8,175.9,118.6,123.8,118.6,123.8z"/>
		<g>
			<circle class="st2" cx="195.3" cy="51.6" r="51.6"/>

				<ellipse transform="matrix(0.9824 -0.1867 0.1867 0.9824 -6.1943 37.3548)" class="st3" cx="195.3" cy="51.6" rx="43.3" ry="43.3"/>
			<g>
				<path class="st4" d="M181.9,79.4l2.5-6.8c-3-1.2-5.8-2.9-8-4.6c-1.8-1.4-2.2-4-0.9-5.9l0.2-0.2c1.4-2.1,4.4-2.6,6.4-1
					c2,1.6,4.5,3.1,7.3,4.1c4.1,1.5,7.4,0.9,8.5-1.9c1-2.7-0.7-5.3-5.3-9c-6.7-5.3-10.6-10.8-8.1-17.7c2.3-6.3,8.5-9.6,16.7-8.3
					l2.5-6.8l7,2.5l-2.3,6.3c2.6,1.1,4.6,2.2,6.2,3.3c2,1.4,2.5,4.1,1.1,6.1l0,0c-1.4,2.1-4.2,2.5-6.2,1.1c-1.5-1.1-3.4-2.3-6-3.2
					c-4.6-1.7-6.9-0.2-7.6,1.8c-0.9,2.4,1.1,4.8,6.3,9.3c7.4,6.1,9.4,11.3,7.1,17.7c-2.3,6.4-8.8,10.2-17.5,8.6l-2.6,7.3L181.9,79.4
					z"/>
			</g>
		</g>
		<path class="st6" d="M193.9,103.4c0,0,4.8-2,6-2.5c1.3-0.4,5.4-1.2,5.4-1.2s6.3-6.5,8-6.7c1.6-0.2-3.7,7.1-3.7,7.1l-2.2,2.1
			c0,0,3.6-3.1,4.3-3.5c0.7-0.4,6-8.2,7.4-7.7c1.4,0.5-2.3,6-4.1,8.9c-1.8,2.9-10,4.7-10,4.7L193.9,103.4z"/>
	</g>
</g>
</svg>
