<svg version="1.1" id="Слой_1" xmlns="http://www.w3.org/2000/svg" x="0" y="0" width="743" height="491" xml:space="preserve"><style>.st0{fill:none;stroke:#fff;stroke-width:2}.st1,.st2{fill:#fff}.st2{opacity:.502;enable-background:new}.st7{fill:#00e9b1}.st9{fill:#242f3d}</style><path class="st0" d="M81 1h593c11 0 20 9 20 20v389c0 11-9 20-20 20H81c-11 0-20-9-20-20V21c0-11 9-20 20-20z"/><path class="st0" d="M182 19h351c4.4 0 8 3.6 8 8s-3.6 8-8 8H182c-4.4 0-8-3.6-8-8s3.6-8 8-8z"/><path class="st1" d="M93 19c4.4 0 8 3.6 8 8s-3.6 8-8 8-8-3.6-8-8 3.6-8 8-8z"/><path class="st2" d="M116 19c4.4 0 8 3.6 8 8s-3.6 8-8 8-8-3.6-8-8 3.6-8 8-8z"/><path d="M139 19c4.4 0 8 3.6 8 8s-3.6 8-8 8-8-3.6-8-8 3.6-8 8-8z" opacity=".251" fill="#fff"/><path class="st0" d="M47 79h404c11 0 20 9 20 20v372c0 11-9 20-20 20H47c-11 0-20-9-20-20V99c0-11 9-20 20-20zm461 0h211c11 0 20 9 20 20v372c0 11-9 20-20 20H508c-11 0-20-9-20-20V99c0-11 9-20 20-20z"/><path d="M68 101.7l365.7 12.7c9.6.3 17.2 8.3 17.1 17.8L448.2 371c-.1 9.4-7.9 17-17.4 17h-363c-10.4 0-18.9-8-18.9-17.9v-251c.1-10 8.6-17.8 19.1-17.4z" fill="none"/><linearGradient id="SVGID_1_" gradientUnits="userSpaceOnUse" x1="226.435" y1="441.961" x2="227.435" y2="441.961" gradientTransform="matrix(401.8111 0 0 -286.3503 -90935.11 126800.477)"><stop offset="0" stop-color="#276990"/><stop offset="1" stop-color="#0c8f73"/></linearGradient><path d="M68 101.7l365.7 12.7c9.6.3 17.2 8.3 17.1 17.8L448.2 371c-.1 9.4-7.9 17-17.4 17h-363c-10.4 0-18.9-8-18.9-17.9v-251c.1-10 8.6-17.8 19.1-17.4z" fill="url(#SVGID_1_)"/><path d="M91.5 346h278c1.9 0 3.5 1.6 3.5 3.5s-1.6 3.5-3.5 3.5h-278c-1.9 0-3.5-1.6-3.5-3.5s1.6-3.5 3.5-3.5z" opacity=".502" fill="#272e34"/><path class="st7" d="M91.5 346h87c1.9 0 3.5 1.6 3.5 3.5s-1.6 3.5-3.5 3.5h-87c-1.9 0-3.5-1.6-3.5-3.5s1.6-3.5 3.5-3.5z"/><path class="st7" d="M179.5 342c4.1 0 7.5 3.4 7.5 7.5s-3.4 7.5-7.5 7.5-7.5-3.4-7.5-7.5 3.4-7.5 7.5-7.5z"/><path class="st2" d="M405 353.1l-5.5-5.6.5 3.1c.6 4.3-4.5 7.2-7.6 4.2l-.1-.1-9.8-10c2.2-2.3 5.8-2.3 8.1-.1l.1.1 5.5 5.6-.5-3.1c-.6-4.3 4.5-7.2 7.6-4.2l.1.1 9.8 10c-2.2 2.3-5.8 2.3-8.1.1 0-.1 0-.1-.1-.1zM393.2 341c-1.1-1.2-1.1-3 0-4.2 1.1-1.1 2.9-1.2 4.1-.1l.1.1c1.1 1.2 1.1 3 0 4.2-1.2 1.2-3 1.2-4.2 0 .1.1 0 .1 0 0z"/><path class="st1" d="M272.6 243.7l-38.7-23.4c-.5-.3-1-.5-1.5-.5-1.5 0-2.8 1.3-2.8 2.8v48.5c0 1.6 1.2 2.8 2.8 2.8.6 0 1-.2 1.6-.5l38.7-23.4c1-.8 1.5-2 1.5-3.3-.1-1-.7-2.2-1.6-3z"/><path d="M247 187c33.1 0 60 26.9 60 60s-26.9 60-60 60-60-26.9-60-60 26.9-60 60-60z" opacity=".251" fill="none" stroke="#fff" stroke-width="6"/><path class="st9" d="M527 103h174c9.9 0 18 8.1 18 18v144c0 9.9-8.1 18-18 18H527c-9.9 0-18-8.1-18-18V121c0-9.9 8.1-18 18-18z"/><path d="M536 131h1v128h-1V131zm31 0h1v128h-1V131zm31 0h1v128h-1V131zm31 0h1v128h-1V131zm31 0h1v128h-1V131zm31 0h1v128h-1V131z" opacity=".251" fill="#3a4856"/><path class="st9" d="M57 402h383c4.4 0 8 3.6 8 8v52c0 4.4-3.6 8-8 8H57c-4.4 0-8-3.6-8-8v-52c0-4.4 3.6-8 8-8z"/><path d="M78.5 417h99c2.5 0 4.5 2 4.5 4.5s-2 4.5-4.5 4.5h-99c-2.5 0-4.5-2-4.5-4.5s2-4.5 4.5-4.5zm115 0h7c2.5 0 4.5 2 4.5 4.5s-2 4.5-4.5 4.5h-7c-2.5 0-4.5-2-4.5-4.5s2-4.5 4.5-4.5zm22 0h7c2.5 0 4.5 2 4.5 4.5s-2 4.5-4.5 4.5h-7c-2.5 0-4.5-2-4.5-4.5s2-4.5 4.5-4.5zm-114 23h99c2.5 0 4.5 2 4.5 4.5s-2 4.5-4.5 4.5h-99c-2.5 0-4.5-2-4.5-4.5s2-4.5 4.5-4.5zm115 0h99c2.5 0 4.5 2 4.5 4.5s-2 4.5-4.5 4.5h-99c-2.5 0-4.5-2-4.5-4.5s2-4.5 4.5-4.5zm-138 0h7c2.5 0 4.5 2 4.5 4.5s-2 4.5-4.5 4.5h-7c-2.5 0-4.5-2-4.5-4.5s2-4.5 4.5-4.5z" fill="#3a4856"/><path class="st9" d="M517 294h194c4.4 0 8 3.6 8 8v34c0 4.4-3.6 8-8 8H517c-4.4 0-8-3.6-8-8v-34c0-4.4 3.6-8 8-8zm0 58h194c4.4 0 8 3.6 8 8v34c0 4.4-3.6 8-8 8H517c-4.4 0-8-3.6-8-8v-34c0-4.4 3.6-8 8-8zm0 59h194c4.4 0 8 3.6 8 8v34c0 4.4-3.6 8-8 8H517c-4.4 0-8-3.6-8-8v-34c0-4.4 3.6-8 8-8z"/><path class="st1" d="M626.3 326v-9H625v-1.2h2.6V326h-1.3zm-6.6 0c-1.3 0-2.2-.5-2.7-1.4-.5-.9-.8-2.2-.8-3.8 0-1.6.3-2.9.8-3.8.5-.9 1.4-1.4 2.7-1.4 1.3 0 2.2.5 2.7 1.4.5.9.8 2.2.8 3.8 0 1.6-.3 2.9-.8 3.8-.5.9-1.4 1.4-2.7 1.4zm2.1-7.2c-.1-.6-.3-1-.7-1.4-.3-.3-.8-.5-1.4-.5-.6 0-1.1.2-1.4.5-.3.3-.5.8-.7 1.4-.1.6-.2 1.3-.2 2.1s.1 1.5.2 2.1c.1.6.3 1 .7 1.4.3.3.8.5 1.4.5.6 0 1.1-.2 1.4-.5.3-.3.6-.8.7-1.4.1-.6.2-1.3.2-2.1-.1-.9-.1-1.6-.2-2.1zm-11.3 7.2c-1.3 0-2.2-.5-2.7-1.4-.5-.9-.8-2.2-.8-3.8 0-1.6.3-2.9.8-3.8.5-.9 1.4-1.4 2.7-1.4 1.3 0 2.2.5 2.7 1.4.5.9.8 2.2.8 3.8 0 1.6-.3 2.9-.8 3.8-.5.9-1.4 1.4-2.7 1.4zm2.1-7.2c-.1-.6-.3-1-.7-1.4-.3-.3-.8-.5-1.4-.5-.6 0-1.1.2-1.4.5-.3.3-.6.8-.7 1.4-.1.6-.2 1.3-.2 2.1s.1 1.5.2 2.1c.1.6.3 1 .7 1.4.3.3.8.5 1.4.5.6 0 1.1-.2 1.4-.5.3-.3.5-.8.7-1.4.1-.6.2-1.3.2-2.1 0-.9-.1-1.6-.2-2.1zm-8.3 7.3c-.2 0-.5-.1-.6-.3-.2-.2-.3-.4-.3-.6 0-.2.1-.4.3-.6.2-.2.4-.3.6-.3.2 0 .4.1.6.3.2.2.2.4.2.6 0 .2-.1.5-.2.6-.1.2-.4.3-.6.3zm-5.7-12.9h-1.9v-1.7h3.8V326h-1.8v-12.8zM585 324.5c1.7-1.4 3-2.5 4-3.4 1-.9 1.8-1.8 2.4-2.7s1-1.9 1-2.8c0-.9-.2-1.5-.6-2s-1.1-.8-2-.8c-.9 0-1.6.3-2.1.9-.5.6-.8 1.3-.8 2.3H585c.1-1.5.5-2.6 1.4-3.5.9-.8 2-1.2 3.3-1.2 1.4 0 2.5.4 3.3 1.1.8.8 1.2 1.8 1.2 3.1 0 1.1-.3 2.2-1 3.2-.6 1-1.4 1.9-2.3 2.8-.8.8-1.9 1.7-3.2 2.8h6.9v1.5H585v-1.3zm-5.4-5.5c.6.2 1 .6 1.4 1.1s.6 1.2.6 2.1c0 .6-.2 1.3-.5 1.8s-.8 1.1-1.4 1.5c-.6.4-1.4.6-2.2.7v1.6h-1.1v-1.6c-1.2-.1-2.2-.5-3-1.2s-1.1-1.5-1.2-2.6h1.9c.1.6.3 1 .6 1.5s.9.7 1.5.8v-5c-.9-.2-1.6-.5-2.2-.7-.6-.2-1-.6-1.4-1.1-.4-.5-.6-1.2-.6-2 0-1.1.4-2 1.1-2.7s1.8-1.1 3-1.2v-1.7h1.1v1.7c1.1.1 2 .5 2.7 1.1s1.1 1.5 1.2 2.5h-1.9c-.1-.5-.3-.9-.6-1.3s-.8-.6-1.4-.8v4.9c1.1.1 1.8.4 2.4.6zm-2.2 5.6c.7-.1 1.3-.3 1.7-.8s.6-1 .6-1.6c0-.7-.2-1.2-.6-1.5-.4-.4-1-.6-1.7-.9v4.8zm-1.1-11.2c-.7.1-1.2.3-1.7.7-.4.4-.6.9-.6 1.6 0 .7.2 1.2.6 1.5s1 .6 1.7.9v-4.7zm58 65c.4-.2.9-.3 1.4-.3.8 0 1.4.2 1.9.5s.8.7 1 1.2.3 1 .3 1.6c0 .7-.1 1.3-.4 1.8-.2.5-.7 1-1.2 1.3-.5.3-1.2.5-1.9.5-1 0-1.8-.3-2.4-.8-.6-.5-1-1.2-1.1-2h1.2c.1.5.4.9.8 1.2s.9.4 1.5.4c.7 0 1.3-.2 1.7-.7.4-.4.6-1 .6-1.8s-.2-1.3-.6-1.7c-.4-.4-.9-.6-1.7-.6-.5 0-.9.1-1.3.4-.4.2-.6.6-.8 1h-1.2v-5.7h6.1v1.1h-4.9v3.2c.3-.1.6-.4 1-.6zm-11 5.6c1.2-1 2.1-1.7 2.8-2.3.6-.6 1.2-1.2 1.7-1.9s.7-1.3.7-2c0-.6-.1-1.1-.4-1.4s-.8-.5-1.4-.5c-.6 0-1.1.2-1.5.6s-.5.9-.6 1.6h-1.2c0-1 .4-1.9 1-2.4.6-.6 1.4-.9 2.3-.9 1 0 1.7.3 2.3.8.6.5.8 1.3.8 2.2 0 .8-.2 1.5-.7 2.3-.4.7-1 1.4-1.6 1.9-.7.7-1.5 1.3-2.3 1.9h4.8v1.1h-6.7v-1zm-5.5 1c-1.3 0-2.2-.5-2.7-1.4-.5-.9-.8-2.2-.8-3.8 0-1.6.3-2.9.8-3.8.5-.9 1.4-1.4 2.7-1.4 1.3 0 2.2.5 2.7 1.4.5.9.8 2.2.8 3.8 0 1.6-.3 2.9-.8 3.8-.5.9-1.4 1.4-2.7 1.4zm2.1-7.2c-.1-.6-.3-1-.7-1.4-.3-.3-.8-.5-1.4-.5-.6 0-1.1.2-1.4.5-.3.3-.6.8-.7 1.4-.1.6-.2 1.3-.2 2.1s.1 1.5.2 2.1c.1.6.3 1 .7 1.4.3.3.8.5 1.4.5.6 0 1.1-.2 1.4-.5.3-.3.5-.8.7-1.4.1-.6.2-1.3.2-2.1 0-.9-.1-1.6-.2-2.1zm-8.3 7.3c-.2 0-.5-.1-.6-.3-.2-.2-.3-.4-.3-.6 0-.2.1-.4.3-.6.2-.2.4-.3.6-.3.2 0 .4.1.6.3.2.2.2.4.2.6 0 .2-.1.5-.2.6-.1.2-.4.3-.6.3zm-3.1-4c0 .9-.2 1.6-.6 2.3-.4.6-1 1.1-1.8 1.5s-1.7.5-2.7.5c-1 0-1.9-.2-2.7-.5-.8-.4-1.4-.9-1.8-1.5-.4-.6-.6-1.4-.6-2.3 0-.9.2-1.7.7-2.3.5-.6 1.1-1.1 2-1.3-.7-.3-1.3-.7-1.7-1.3-.4-.6-.6-1.2-.6-2 0-.7.2-1.4.5-2 .4-.6.9-1 1.6-1.4.7-.3 1.6-.5 2.6-.5s1.9.2 2.6.5c.7.3 1.3.8 1.6 1.4.4.6.5 1.2.5 2s-.2 1.5-.6 2c-.4.6-1 1-1.7 1.3.8.3 1.5.7 2 1.3.4.6.7 1.4.7 2.3zm-2.2-6.7c0-.8-.3-1.4-.8-1.9-.5-.4-1.3-.7-2.2-.7-.9 0-1.6.2-2.2.7-.5.4-.8 1.1-.8 1.9 0 .7.3 1.3.8 1.8.6.5 1.3.7 2.2.7.9 0 1.6-.2 2.2-.7.5-.5.8-1.1.8-1.8zm-.6 4.6c-.6-.5-1.4-.7-2.4-.7s-1.8.2-2.4.7c-.6.5-.9 1.1-.9 2.1 0 .9.3 1.5.9 2.1.6.5 1.4.8 2.5.8 1 0 1.8-.3 2.4-.8s.9-1.2.9-2.1c0-1-.3-1.6-1-2.1zm-11.8 6h-1.8v-3.2h-7.4v-1.4l7-9.7h2.2v9.5h2v1.6h-2v3.2zm-1.7-12.4l-5.4 7.6h5.4v-7.6zm-12.6 5.4c.6.2 1 .6 1.4 1.1s.6 1.2.6 2.1c0 .6-.2 1.3-.5 1.8s-.8 1.1-1.4 1.5c-.6.4-1.4.6-2.2.7v1.6h-1.1v-1.6c-1.2-.1-2.2-.5-3-1.2s-1.1-1.5-1.2-2.6h1.9c.1.6.3 1 .6 1.5s.9.7 1.5.8v-5c-.9-.2-1.6-.5-2.2-.7-.6-.2-1-.6-1.4-1.1-.4-.5-.6-1.2-.6-2 0-1.1.4-2 1.1-2.7s1.8-1.1 3-1.2v-1.7h1.1v1.7c1.1.1 2 .5 2.7 1.1s1.1 1.5 1.2 2.5h-1.9c-.1-.5-.3-.9-.6-1.3s-.8-.6-1.4-.8v4.9c1.1.1 1.8.4 2.4.6zm-2.2 5.6c.7-.1 1.3-.3 1.7-.8s.6-1 .6-1.6c0-.7-.2-1.2-.6-1.5-.4-.4-1-.6-1.7-.9v4.8zm-1.1-11.2c-.7.1-1.2.3-1.7.7-.4.4-.6.9-.6 1.6 0 .7.2 1.2.6 1.5s1 .6 1.7.9v-4.7zm45.4 66.2c.6.2 1.1.5 1.4 1 .4.4.5 1 .5 1.7 0 .5-.1 1-.4 1.4-.2.4-.6.8-1.1 1-.5.2-1.1.4-1.8.4-1 0-1.8-.3-2.4-.8-.6-.5-1-1.3-1.1-2.2h1.2c.1.6.3 1 .7 1.4.4.4.9.5 1.6.5.7 0 1.2-.2 1.5-.5.3-.3.5-.8.5-1.3 0-.7-.2-1.2-.7-1.5-.5-.3-1.2-.5-2.1-.5h-.3v-1.1h.3c.9 0 1.5-.2 1.9-.4.4-.3.7-.7.7-1.3 0-.5-.2-.9-.5-1.2-.3-.3-.8-.4-1.4-.4-.6 0-1 .1-1.4.4-.4.3-.6.7-.6 1.2H617c.1-.9.4-1.5 1-2s1.4-.7 2.3-.7c.6 0 1.2.1 1.6.3.5.2.8.5 1 .9s.4.8.4 1.3c0 .6-.2 1.1-.5 1.5-.1.5-.6.8-1.1.9zm-7.6 5.4h-1.3v-2.3h-5.2v-1l4.9-6.8h1.5v6.7h1.4v1.1H614v2.3zm-1.2-8.7l-3.8 5.3h3.8v-5.3zm-7.6 8.8c-.2 0-.5-.1-.6-.3-.2-.2-.3-.4-.3-.6 0-.2.1-.4.3-.6.2-.2.4-.3.6-.3.2 0 .4.1.6.3.2.2.2.4.2.6 0 .2-.1.5-.2.6-.1.2-.4.3-.6.3zm-12.4-1.6c1.7-1.4 3-2.5 4-3.4 1-.9 1.8-1.8 2.4-2.7s1-1.9 1-2.8c0-.9-.2-1.5-.6-2s-1.1-.8-2-.8c-.9 0-1.6.3-2.1.9-.5.6-.8 1.3-.8 2.3H593c.1-1.5.5-2.6 1.4-3.5.9-.8 2-1.2 3.3-1.2 1.4 0 2.5.4 3.3 1.1.8.8 1.2 1.8 1.2 3.1 0 1.1-.3 2.2-1 3.2-.6 1-1.4 1.9-2.3 2.8-.8.8-1.9 1.7-3.2 2.8h6.9v1.5H593v-1.3h-.1zm-5.3-11.3h-1.9v-1.7h3.8V444h-1.8v-12.8h-.1zm-7 5.8c.6.2 1 .6 1.4 1.1s.6 1.2.6 2.1c0 .6-.2 1.3-.5 1.8s-.8 1.1-1.4 1.5c-.6.4-1.4.6-2.2.7v1.6h-1.1v-1.6c-1.2-.1-2.2-.5-3-1.2s-1.1-1.5-1.2-2.6h1.9c.1.6.3 1 .6 1.5s.9.7 1.5.8v-5c-.9-.2-1.6-.5-2.2-.7-.6-.2-1-.6-1.4-1.1-.4-.5-.6-1.2-.6-2 0-1.1.4-2 1.1-2.7s1.8-1.1 3-1.2v-1.7h1.1v1.7c1.1.1 2 .5 2.7 1.1s1.1 1.5 1.2 2.5h-1.9c-.1-.5-.3-.9-.6-1.3s-.8-.6-1.4-.8v4.9c1.1.1 1.8.4 2.4.6zm-2.2 5.6c.7-.1 1.3-.3 1.7-.8s.6-1 .6-1.6c0-.7-.2-1.2-.6-1.5-.4-.4-1-.6-1.7-.9v4.8zm-1.1-11.2c-.7.1-1.2.3-1.7.7-.4.4-.6.9-.6 1.6 0 .7.2 1.2.6 1.5s1 .6 1.7.9v-4.7zM542.5 310c4.1 0 7.5 3.4 7.5 7.5s-3.4 7.5-7.5 7.5-7.5-3.4-7.5-7.5 3.4-7.5 7.5-7.5z"/><path class="st7" d="M542 306c-6.6 0-12 5.4-12 12s5.4 12 12 12 12-5.4 12-12-5.4-12-12-12zm4.5 13.1h-3.4v3.4c0 .6-.5 1.1-1.1 1.1-.7 0-1.2-.5-1.2-1.1v-3.4h-3.4c-.6 0-1.1-.5-1.1-1.1 0-.6.5-1.1 1.1-1.1h3.4v-3.4c0-.6.5-1.1 1.1-1.1s1.1.5 1.1 1.1v3.4h3.4c.6 0 1.1.5 1.1 1.1s-.4 1.1-1 1.1z"/><path class="st1" d="M542.5 368c4.1 0 7.5 3.4 7.5 7.5s-3.4 7.5-7.5 7.5-7.5-3.4-7.5-7.5 3.4-7.5 7.5-7.5z"/><path class="st7" d="M542 364c-6.6 0-12 5.4-12 12s5.4 12 12 12 12-5.4 12-12-5.4-12-12-12zm4.5 13.1h-3.4v3.4c0 .6-.5 1.1-1.1 1.1-.7 0-1.2-.5-1.2-1.1v-3.4h-3.4c-.6 0-1.1-.5-1.1-1.1 0-.6.5-1.1 1.1-1.1h3.4v-3.4c0-.6.5-1.1 1.1-1.1s1.1.5 1.1 1.1v3.4h3.4c.6 0 1.1.5 1.1 1.1s-.4 1.1-1 1.1z"/><path class="st1" d="M542.5 428c4.1 0 7.5 3.4 7.5 7.5s-3.4 7.5-7.5 7.5-7.5-3.4-7.5-7.5 3.4-7.5 7.5-7.5z"/><path class="st7" d="M542 424c-6.6 0-12 5.4-12 12s5.4 12 12 12 12-5.4 12-12-5.4-12-12-12zm4.5 13.1h-3.4v3.4c0 .6-.5 1.1-1.1 1.1-.7 0-1.2-.5-1.2-1.1v-3.4h-3.4c-.6 0-1.1-.5-1.1-1.1 0-.6.5-1.1 1.1-1.1h3.4v-3.4c0-.6.5-1.1 1.1-1.1s1.1.5 1.1 1.1v3.4h3.4c.6 0 1.1.5 1.1 1.1s-.4 1.1-1 1.1z"/><linearGradient id="SVGID_2_" gradientUnits="userSpaceOnUse" x1="613.255" y1="266.078" x2="613.255" y2="162.242" gradientTransform="matrix(-1 0 0 1 1227.006 0)"><stop offset="0" stop-color="#136a9d" stop-opacity="0"/><stop offset="1" stop-color="#136a9d" stop-opacity=".5"/></linearGradient><path d="M509.1 180c16.5 7.8 18.7 2.1 28.4-1s10.5 4.6 22 7.7c11.5 3.1 17.6-15.2 26.8-16.4 9.2-1.3 22.7 20.1 33.7 17.4 11-2.7 7.3-24.2 17.5-25.4 10.2-1.2 14.5 16 31.6 19.3 17.1 3.3 16.8-11.6 29.2-15.2C710.7 162.8 719 180 719 180v86.1H508.5l.6-86.1z" fill="url(#SVGID_2_)"/><linearGradient id="SVGID_3_" gradientUnits="userSpaceOnUse" x1="508.006" y1="175.184" x2="718.259" y2="175.184" gradientTransform="matrix(-1 0 0 1 1227.006 0)"><stop offset="0" stop-color="#30a3e6"/><stop offset=".998" stop-color="#00e9b1"/></linearGradient><path d="M617.7 188.7c.7 0 1.4-.1 2.1-.3 5.9-1.4 7.8-7.7 9.6-13.8 1.7-5.6 3.2-10.9 7.8-11.5 4.5-.5 7.8 2.8 11.9 7.1 4.5 4.6 10.2 10.4 19.4 12.2 10.6 2 14.9-2.8 19-7.4 2.8-3.1 5.6-6.3 10.4-7.7 11.7-3.4 19.7 13 19.8 13.1l1.3-.6c-.1-.2-2.2-4.4-5.8-8.3-4.9-5.2-10.3-7.1-15.7-5.6-5.2 1.5-8.2 4.9-11.1 8.1-4.2 4.8-7.9 8.9-17.7 7-8.7-1.7-14-7.1-18.6-11.8-4.2-4.3-7.9-8.1-13.1-7.5-5.5.6-7.3 6.7-9 12.5-1.7 5.7-3.4 11.6-8.5 12.8-5.5 1.3-11.9-3.9-18.1-9-5.6-4.6-10.9-9-15.4-8.4-4.2.6-7.5 4.2-11.1 8.1-4.5 4.9-9.1 9.9-15.3 8.3-4.6-1.2-7.5-3.2-9.9-5-3.6-2.5-6.4-4.5-12.4-2.6-2.3.7-4.2 1.6-5.9 2.4-5.6 2.6-9.6 4.4-21.9-1.4l-.6 1.3c12.9 6.1 17.4 4 23.1 1.4 1.7-.8 3.5-1.6 5.7-2.3 5.3-1.7 7.7 0 11.2 2.4 2.5 1.7 5.5 3.9 10.4 5.2 7 1.9 11.9-3.5 16.7-8.7 3.4-3.7 6.6-7.2 10.3-7.7 4-.5 9 3.6 14.3 8 5.6 4.8 11.5 9.7 17.1 9.7z" fill="url(#SVGID_3_)"/><circle cx="637.7" cy="162.3" r="5.2" opacity=".6"/><path class="st1" d="M633.5 161.4c0 2.6 2.1 4.7 4.7 4.7s4.7-2.1 4.7-4.7-2.1-4.7-4.7-4.7-4.7 2.1-4.7 4.7z"/></svg>