<svg version="1.1" id="Слой_1" xmlns="http://www.w3.org/2000/svg" x="0" y="0" width="526.4" height="397.3" xml:space="preserve"><style>.st0{fill:#4f6174}.st3{fill:#fff}.st5{enable-background:new}.st6{fill:#fccab9}.st7{fill:#30a3e6}.st9{fill:#14171b}.st11{fill:#e5a391}.st12{fill:#050001}.st13{fill:#fca89e}.st16{opacity:.25;fill:#fff;enable-background:new}</style><g id="Слой_2_1_"><path class="st0" d="M52.6 120.5h1.8v134.8h-1.8zm63.2 0h1.8v134.8h-1.8zm63.1 0h1.8v134.8h-1.8zm63.2 0h1.8v134.8h-1.8zm63.2 0h1.8v134.8h-1.8zm63.2 0h1.8v134.8h-1.8zm63.1 0h1.8v134.8h-1.8z"/><linearGradient id="SVGID_1_" gradientUnits="userSpaceOnUse" x1="337.726" y1="386.604" x2="337.726" y2="525.852" gradientTransform="matrix(1 0 0 -1 0 650.667)"><stop offset="0" stop-color="#4f6174"/><stop offset=".995" stop-color="#4f6174" stop-opacity="0"/></linearGradient><path fill="url(#SVGID_1_)" d="M305.3 120.5h64.9v134.8h-64.9z"/><path fill="#00f1a0" d="M337.8 234.7l-3.1 5.3h6.1z"/><path class="st3" d="M333.2 223.8h-1.3v2.3h-2.3v-2.3H325v-1.6l4.8-7h2.1v6.8h1.3v1.8zm-3.6-1.8v-3.1c0-.6 0-.9.1-1h-.1c-.2.4-.4.8-.7 1.2l-2 3 2.7-.1zm4.4-.5c0-2.1.5-3.7 1.4-4.8.9-1 2.3-1.6 4.1-1.6.6 0 1.1 0 1.5.1v1.8c-.4-.1-.9-.1-1.3-.1-.8 0-1.4.1-1.9.4-.5.2-.9.6-1.1 1.1s-.4 1.1-.4 2h.1c.5-.8 1.3-1.3 2.4-1.3 1 0 1.7.3 2.3.9.5.6.8 1.5.8 2.5 0 1.2-.3 2.1-1 2.8s-1.6 1-2.7 1c-.8 0-1.5-.2-2.1-.6-.6-.4-1.1-.9-1.4-1.6s-.7-1.6-.7-2.6zm3.9 2.9c.5 0 .9-.2 1.1-.5s.4-.8.4-1.4c0-.5-.1-.9-.4-1.3-.2-.3-.6-.5-1.1-.5s-.9.2-1.2.5-.5.7-.5 1.1c0 .6.2 1.1.5 1.5.3.4.7.6 1.2.6zm5.9 1.7l4.1-8.9h-5.4v-1.9h7.8v1.4l-4.1 9.4h-2.4z"/><linearGradient id="SVGID_2_" gradientUnits="userSpaceOnUse" x1="32.221" y1="492.724" x2="454.327" y2="492.724" gradientTransform="matrix(1 0 0 -1 0 650.667)"><stop offset="0" stop-color="#30a3e6"/><stop offset="1" stop-color="#00e9b1"/></linearGradient><path d="M294.5 191.6c-3.4 0-6.3-1.1-8.3-3.3-7.4-7.9-9.3-8.3-22.4-8.9-9.1-.4-12.7-6.2-18.7-15.9-4-6.4-8.9-14.4-17.3-24.2-6.4-7.5-13-11.3-20.2-11.5-13.6-.5-28.8 12.1-47.4 31-25.4 26-51.4 3.9-72.4-13.8-2.5-2.1-4.9-4.1-7.3-6.1-5-4.1-10.6-5.9-16.6-5.2-15 1.7-27.8 17.7-27.9 17.9-.6.8-1.7.9-2.5.3-.8-.6-.9-1.7-.3-2.5.6-.7 13.9-17.4 30.3-19.2 6.9-.8 13.4 1.2 19.2 6 2.4 1.9 4.8 4 7.3 6.1 20.8 17.7 44.4 37.7 67.5 14.1 19.8-20.2 35-32.6 50-32.1 8.2.3 15.6 4.4 22.7 12.7 8.6 10 13.8 18.5 17.7 24.6 5.8 9.3 8.7 13.9 15.9 14.2 13.9.6 16.8 1.3 24.8 10 2.3 2.4 5.9 2.3 8.6 1.8 8.6-1.7 20.1-10.3 24.5-21.9 4-10.5 14-19.6 25.5-23.1 9.8-3 19.7-1.6 27.9 4 4 2.8 7.5 5.5 10.5 7.9 11.6 9.1 16.4 12.8 27.4 3.4 16.8-14.2 32.1-20.4 44.5-18.1 1 .2 1.6 1.1 1.4 2.1s-1.1 1.6-2.1 1.4c-11.1-2.1-25.9 4-41.6 17.3-13.3 11.2-20.3 5.7-31.9-3.4-3-2.3-6.4-5-10.3-7.7-9.2-6.4-18.6-5.5-24.8-3.6-10.3 3.2-19.7 11.6-23.2 21-4.8 12.7-17.6 22.2-27.1 24.1-1.1.5-2.3.6-3.4.6z" fill="url(#SVGID_2_)"/></g><g id="Слой_2_2_"><g class="st5"><path class="st3" d="M78.1 281.5c-.3 0-.6 0-.8-.1v-.7c.2.1.5.1.8.1s.6-.1.8-.3c.2-.2.3-.5.3-.9v-7.5h.9v7.4c0 .7-.2 1.2-.5 1.5-.4.4-.8.5-1.5.5zm7.3-1.9l-.2-.8c-.3.4-.6.6-.8.7-.3.1-.6.2-1.1.2-.6 0-1-.1-1.3-.4s-.5-.7-.5-1.2c0-1.1.9-1.7 2.8-1.8h1v-.3c0-.4-.1-.8-.3-1s-.5-.3-.9-.3c-.5 0-1 .1-1.6.4l-.3-.7c.3-.2.6-.3.9-.4s.7-.1 1-.1c.7 0 1.2.1 1.5.4s.5.8.5 1.4v3.8l-.7.1zm-1.9-.6c.5 0 1-.1 1.3-.4s.5-.7.5-1.2v-.5h-.9c-.7 0-1.2.1-1.5.3-.3.2-.5.5-.5.9 0 .3.1.5.3.7.2.1.4.2.8.2zm8.2.6V276c0-.5-.1-.8-.3-1s-.5-.3-1-.3c-.6 0-1 .2-1.3.5s-.4.8-.4 1.6v2.9h-.9V274h.7l.1.8c.2-.3.4-.5.7-.6.3-.2.7-.2 1.1-.2.7 0 1.2.2 1.5.5s.5.8.5 1.6v3.7h-.7v-.2z"/></g><g class="st5"><path class="st3" d="M141.9 279.6h-.9v-7.5h4.2v.8h-3.3v2.7h3.1v.8h-3.1v3.2zm6.9.1c-.8 0-1.5-.3-2-.8s-.7-1.2-.7-2.1.2-1.6.7-2.2c.5-.5 1.1-.8 1.8-.8s1.3.2 1.7.7.6 1.1.6 1.8v.5H147c0 .7.2 1.2.5 1.5s.8.5 1.3.5c.6 0 1.2-.1 1.8-.4v.8l-.9.3c-.2.1-.5.2-.9.2zm-.3-5.1c-.5 0-.8.1-1.1.4-.3.3-.4.7-.5 1.2h3c0-.5-.1-.9-.4-1.2-.2-.3-.5-.4-1-.4zm6.5-.7c.7 0 1.3.3 1.7.8s.6 1.2.6 2.1-.2 1.6-.6 2.2c-.4.5-1 .8-1.7.8-.4 0-.7-.1-1-.2s-.6-.3-.8-.6h-.1l-.2.7h-.6v-8h.9v3.1c.4-.7 1-.9 1.8-.9zm-.2.7c-.6 0-1 .2-1.3.5s-.4.9-.4 1.7.1 1.4.4 1.7c.3.3.7.5 1.3.5.5 0 .9-.2 1.2-.6.3-.4.4-.9.4-1.6s-.1-1.3-.4-1.6-.6-.6-1.2-.6z"/></g><g class="st5"><path class="st3" d="M207.3 279.6l-2.6-6.6c0 .5.1 1.2.1 1.9v4.8h-.8v-7.5h1.3l2.4 6.2 2.4-6.2h1.3v7.5h-.9v-4.8c0-.6 0-1.2.1-1.8l-2.6 6.6h-.7v-.1zm9.5 0l-.2-.8c-.3.4-.6.6-.8.7-.3.1-.6.2-1.1.2-.6 0-1-.1-1.3-.4s-.5-.7-.5-1.2c0-1.1.9-1.7 2.8-1.8h1v-.3c0-.4-.1-.8-.3-1-.2-.2-.5-.3-.9-.3-.5 0-1 .1-1.6.4l-.3-.7c.3-.2.6-.3.9-.4s.7-.1 1-.1c.7 0 1.2.1 1.5.4s.5.8.5 1.4v3.8l-.7.1zm-1.9-.6c.5 0 1-.1 1.3-.4s.5-.7.5-1.2v-.5h-.9c-.7 0-1.2.1-1.5.3-.3.2-.5.5-.5.9 0 .3.1.5.3.7.2.1.5.2.8.2zm6.9-5.2c.3 0 .5 0 .7.1l-.1.8c-.2-.1-.4-.1-.6-.1-.5 0-.9.2-1.2.6-.3.4-.5.8-.5 1.4v3h-.9V274h.7l.1 1c.2-.4.5-.6.8-.8.4-.3.7-.4 1-.4z"/></g><g class="st5"><path class="st3" d="M272.4 279.6l-.9-2.4h-3l-.9 2.4h-1l3-7.5h.7l3 7.5h-.9zm-1.2-3.2l-.9-2.3c-.1-.3-.2-.7-.4-1.1-.1.3-.2.7-.3 1.1l-.9 2.3h2.5zm5.7 3.3c-.4 0-.7-.1-1-.2s-.6-.3-.8-.6h-.1c0 .3.1.6.1.9v2.3h-.9V274h.7l.1.8c.2-.3.5-.5.8-.7.3-.1.6-.2 1-.2.8 0 1.3.3 1.7.8.4.5.6 1.2.6 2.1s-.2 1.6-.6 2.2c-.3.4-.9.7-1.6.7zm-.2-5.1c-.6 0-1 .2-1.3.5s-.4.8-.4 1.5v.2c0 .8.1 1.4.4 1.7.3.3.7.5 1.3.5.5 0 .9-.2 1.2-.6.3-.4.4-.9.4-1.6s-.1-1.2-.4-1.6c-.3-.4-.7-.6-1.2-.6zm6.6-.8c.3 0 .5 0 .7.1l-.1.8c-.2-.1-.4-.1-.6-.1-.5 0-.9.2-1.2.6-.3.4-.5.8-.5 1.4v3h-.9V274h.7l.1 1c.2-.4.5-.6.8-.8.3-.3.7-.4 1-.4z"/></g><g class="st5"><path class="st3" d="M332.7 279.6l-2.6-6.6c0 .5.1 1.2.1 1.9v4.8h-.8v-7.5h1.3l2.4 6.2 2.4-6.2h1.3v7.5h-.9v-4.8c0-.6 0-1.2.1-1.8l-2.6 6.6h-.7v-.1zm9.6 0l-.2-.8c-.3.4-.6.6-.8.7-.3.1-.6.2-1.1.2-.6 0-1-.1-1.3-.4s-.5-.7-.5-1.2c0-1.1.9-1.7 2.8-1.8h1v-.3c0-.4-.1-.8-.3-1s-.5-.3-.9-.3c-.5 0-1 .1-1.6.4l-.3-.7c.3-.2.6-.3.9-.4s.7-.1 1-.1c.7 0 1.2.1 1.5.4s.5.8.5 1.4v3.8l-.7.1zm-1.9-.6c.5 0 1-.1 1.3-.4s.5-.7.5-1.2v-.5h-.9c-.7 0-1.2.1-1.5.3-.3.2-.5.5-.5.9 0 .3.1.5.3.7.2.1.4.2.8.2zm3.4-5h.9l1.2 3.2c.3.7.4 1.3.5 1.6 0-.2.1-.5.3-.9.1-.4.6-1.7 1.4-3.9h.9l-2.4 6.4c-.2.6-.5 1.1-.8 1.3-.3.3-.7.4-1.2.4-.3 0-.5 0-.8-.1v-.7c.2 0 .4.1.6.1.6 0 1-.3 1.3-1l.3-.8-2.2-5.6z"/></g><g class="st5"><path class="st3" d="M393.5 281.9c-.3 0-.6 0-.8-.1v-.8c.2.1.5.1.8.1s.6-.1.8-.3c.2-.2.3-.5.3-.9v-7.5h.9v7.4c0 .7-.2 1.2-.5 1.5-.4.4-.9.6-1.5.6zm4.6-7.6v3.6c0 .5.1.8.3 1s.5.3 1 .3c.6 0 1-.2 1.3-.5s.4-.8.4-1.6v-3h.9v5.6h-.7l-.1-.8c-.2.3-.4.5-.7.6s-.7.2-1.1.2c-.7 0-1.2-.2-1.6-.5-.4-.3-.5-.8-.5-1.6v-3.7h.8v.4zm9.6 5.6v-3.6c0-.5-.1-.8-.3-1s-.5-.3-1-.3c-.6 0-1 .2-1.3.5s-.4.8-.4 1.6v2.9h-.9v-5.6h.7l.1.8c.2-.3.4-.5.7-.6.3-.2.7-.2 1.1-.2.7 0 1.2.2 1.5.5s.5.8.5 1.6v3.7h-.7v-.3z"/></g></g><g id="Слой_3"><path class="st6" d="M65.1 390.5l-2-17.9-11-.5 1.9 19.7 9.1-.1z"/><path class="st0" d="M52.6 386.4s9.6 4 14-2.6l15.9 9.4c1.4.8.8 2.9-.8 2.9l-31.9.2 2.8-9.9z"/><path class="st7" d="M40.5 261.6L48.9 379l17.4-.1s-.7-72.9-7.7-118.4l-18.1 1.1z"/><path class="st6" d="M38.9 390.7l.2-17.9-11-.5-.2 19.7 9-.1z"/><path class="st0" d="M26.4 386.6s9.6 4 14-2.6l20.7 12.2-37.5.3 2.8-9.9z"/><path class="st7" d="M57.3 262.8l-7.1-.2v-.5l-27.4 10.6c-2.7 43.1 1.4 106.6 1.4 106.6l19.8-.1L49.4 277l7.9-14.2z"/><path class="st0" d="M47.8 215.8s-2.2 5.1 8.7 30.8c0 0 5.5 11 8 11.3 4.2.5 21.4-.8 30.2-13.7l-11.8-10.4-13.1 7.7-7.9-19.9c0 .1-4.6-13.2-14.1-5.8z"/><path class="st0" d="M34.6 208.7c-4.5 1.5-15.4 6.5-15.4 6.5-1.2.6-2 1.9-1.8 3.2l5.3 54.2s16.4 7.2 37.2-4.1l-1.3-49.7c.2-1.4-1.3-3.4-2.3-4.4L44.2 208l-9.6.7z"/><path class="st6" d="M50.8 251.1s3.8 8.3-12.5 6.1l-16.8 1.3 1.3-5.1 10.7-1 12.6-.1 4.7-1.2z"/><path class="st0" d="M19.2 215.2s-8.1 2.7-17 28c0 0-3.4 9.8-1.7 11.6 2.8 3 18.8 7.6 34 4l-1.8-7.9-14.9-2.9 7.4-19.3c0 .1 6-12.8-6-13.5z"/><path class="st9" d="M29.1 252.7l29.7-.2v-3.3l-29.7.1c-.9 0-1.7.8-1.7 1.7.1 1 .8 1.7 1.7 1.7z"/><path class="st9" d="M54.9 252.5l39.3-.3c2.3 0 4.2-1.5 4.8-3.7l7.5-27.6c.7-2.4-1.2-4.8-3.7-4.8l-36.1.2c-1.5 0-2.8 1-3.2 2.5l-8.6 33.7z"/><path class="st3" d="M79.5 234.4c0 2.1 1.7 3.7 3.7 3.7 2.1 0 3.7-1.7 3.7-3.7 0-2.1-1.7-3.7-3.7-3.7-2.1-.1-3.7 1.6-3.7 3.7z"/><path d="M28 181.3s-.2-8.2 12.2-8.8c10.7-.5 12.1 3.9 13.1 7 1 3-12.1 11.2-12.1 11.2L28 181.3z" fill="#171e21"/><path class="st6" d="M34.6 208.7l-.7-16.5 10.6-.5.7 15.9c.1 2.9-2.2 4.2-5.1 4.4-3 .1-5.4-.4-5.5-3.3z"/><path class="st11" d="M34 194s-1.5 9.8 11.2 12.2l-.4-7.6L34 194z"/><path class="st12" d="M47.8 174.9s7.5-.1 5.6 11.8l-3.7-5.1-1.9-6.7z"/><path class="st11" d="M47.9 189c.1 2 1.8 3.6 3.9 3.5 2-.1 3.6-1.8 3.5-3.9-.1-2-1.8-3.6-3.9-3.5-2 .1-3.6 1.9-3.5 3.9z"/><path class="st6" d="M43.1 202.8c5.7-.3 10.1-3.9 9.9-9.6l-.5-11.3c-.1-2.5-2.2-4.4-4.7-4.3l-11.6.6c-2.5.1-4.4 2.2-4.3 4.7l.5 9.7c.1 5.7 5.9 10.5 10.7 10.2z"/><path class="st12" d="M32.9 189.5s5.6-3.8 3.2-11.3l-5.8.3s-.9-1.3-2 .5c-1.2 1.7 1.5 9.9 1.5 9.9l3.1.6z"/><path class="st12" d="M34.5 185.4l2.1-5.7s13.8 1.7 17.2-2.2c3.2-3.7.6-9.3-2.2-9.9-2.1-.5-4.5 1.5-6.1 2.4s-5.6.1-6.7 0c-1.2-.1-6.3-1.1-7.8 4.3 0 0-8.3 3.1.3 17-.1 0 3.2-2 3.2-5.9z"/><path class="st6" d="M27.4 190.3c0 2.1 1.8 3.8 3.9 3.7s3.8-1.8 3.7-3.9c0-2.1-1.8-3.8-3.9-3.7-2 0-3.7 1.8-3.7 3.9z"/><path class="st12" d="M35.8 184.5s-.4 7.6 1.3 9.7c1.7 2.2 2.6-.1 8.5-1 6-.9 7.5 1.8 7.5 1.8s-.3 7.6-8.1 8c-6.1.3-12.3-1.1-11.1-10.9 1.2-9.8-2.2-12.1-2.2-12.1l4.1 4.5z"/><path class="st6" d="M36 207.7l-6 2.8s1.2 4.6 10.6 4.2c1.2 0 2.4-.2 3.5-.6 1.6-.6 3.7-1.7 4.4-3.9l-5.1-3.1-7.4.6z"/></g><g id="Слой_4"><path transform="rotate(-25.631 390.287 204.588)" class="st7" d="M388.8 182h3v45.2h-3z"/><path class="st13" d="M404.7 234.3c-1.9-2-9.5-12.1-3.1-15.1s10.9 13.2 10.9 13.2l-7.8 1.9z"/><path class="st7" d="M494 291.7h-46.1l1.2 98.4h8.8s6.7-49.5 9.2-76.9h6.1l6.2 36 25.6 27.5 6.7-5.9-19.4-29.7s1.8-36.6 1.6-43c.3-1.1.1-6.4.1-6.4z"/><path class="st0" d="M494 291.7h-46.1l-5.8-61.2c-.5-5 4.3-9.3 10.4-9.3h36.7c6.1 0 11 4.3 10.4 9.3l-5.6 61.2z"/><path class="st13" d="M470.7 227.8c8.2 0 8.1-5.5 8.1-6.9v-9c0-2-3-1.9-4.9-1.9h-5.8c-1.8 0-4.9 1.7-4.9 3.7v7.2c.1 1.3.9 6.9 7.5 6.9z"/><path class="st0" d="M441.9 228.6l-11.7 22.6-18.2-21.1c0-.8-8.4 2.4-7.4 4.2 1.7 3 13.4 26.8 22.6 36.6 5.1 5.4 20.2-14.4 21.1-15.8 1.3-2.2 3.1-15.7 3.3-23.3.1-1.7-1.2-3.2-3-3.4l-2.7-4.9c-1.4-.1-3.4 3.7-4 5.1zm54-5.3s21.3 22.7 28.8 29.9c4.1 3.9 0 6.9-2.4 9.9-6.6 8.2-27.8 22.9-27.8 22.9l1.2-12.4 12.8-15s-18-13.9-18.6-14.9c-1.6-2.7-.3-14.8-.3-14.8l6.3-5.6zM449 390h8.9v6.9h-18.1c-1.2 0-1.6-2.7-.6-3.3l9.8-3.6z"/><path d="M465.7 189.4c-6.9-.8-8.8 4.5-10 14.9-1 9 .1 13.5 8.5 13.6 8.3.1 20.7-4.5 19.6-15.7-1.2-11.1-18.1-12.8-18.1-12.8z" fill="#ffbbb6"/><path class="st0" d="M505 376.7l6.7-5.9 4.5 5.2-13.6 12c-.9.8-3-1-2.6-2.1l5-9.2z"/><path d="M463 180.8c3.6-2.9 6.9 1.8 10.9 3.2 3.9 1.4 10.8-2.3 14.5 1.7 3.7 3.9-.8 11.1-1 13.8-.2 2.8 1.8 9.2-.6 13-2.2 3.5-7.6 5.4-13.6 2.6-3.9-1.9 1-8.1 1.8-11.4.8-3.4.2-7.5-4.5-4-2.1 1.6-5.9 3.3-5.6-2 .2-6.9-9.7-10.6-1.9-16.9z" fill="#7f4d4e"/></g><g id="Слой_5"><path class="st7" d="M140.1 70.3c-7.7 0-14 6.3-14 14s6.3 14 14 14 14-6.3 14-14-6.3-14-14-14zm-11.2 14c0-6.2 5-11.2 11.2-11.2 2.5 0 4.9.8 6.9 2.4l-15.7 15.7c-1.6-2-2.4-4.4-2.4-6.9zm11.2 11.2c-2.5 0-4.9-.8-6.9-2.4l15.7-15.7c1.5 2 2.4 4.3 2.4 6.9 0 6.2-5 11.2-11.2 11.2z"/><path class="st16" d="M489.6 98.3c6.3 0 11.5 5.2 11.5 11.5s-5.2 11.5-11.5 11.5-11.5-5.2-11.5-11.5 5.2-11.5 11.5-11.5zm9.2 11.5c0-5.1-4.1-9.2-9.2-9.2-2.1 0-4 .7-5.7 2l12.9 12.9c1.3-1.7 2-3.6 2-5.7zm-9.2 9.2c2.1 0 4-.7 5.7-2l-12.9-12.9c-1.2 1.6-2 3.5-2 5.7 0 5.1 4.1 9.2 9.2 9.2zM55 55.2c7.5-5.7 16 2.8 10.3 10.3-7.6 5.6-16-2.8-10.3-10.3z"/><path class="st3" d="M388.1 332.3c2.2 0 4 1.8 4 4s-1.8 4-4 4-4-1.8-4-4 1.8-4 4-4z"/><path class="st16" d="M491.1 4.3c2.2 0 4 1.8 4 4s-1.8 4-4 4-4-1.8-4-4 1.8-4 4-4z"/><path class="st7" d="M335.5 30l-4.2-21.6c-.1-.8-.7-1.4-1.4-1.6-.7-.2-1.5-.1-2.1.4l-8.4 7.1-10.8 2.1c-4.2.8-6.9 4.8-6.1 8.8.7 3.7 4.2 6.2 7.9 6l2.5 7.1c.7 2 2.9 3.2 5 2.8 1.3-.2 2.4-1 3-2.1s.8-2.4.4-3.6l-2.1-5.8 3.1-.6 10.5 3.4c.4.1.8.1 1.1.1.4-.1.7-.2 1-.5.5-.5.8-1.2.6-2zm-16.6 6.3c.2.5.1 1.1-.2 1.6-.3.5-.8.8-1.4.9-1 .2-1.9-.4-2.3-1.3l-2.4-6.7 4-.8 2.3 6.3zm-5.7-7.9l-2.3.5c-2.9.6-5.6-1.2-6.2-4-.5-2.8 1.3-5.5 4.2-6l10-1.9 2 10.1-7.7 1.3zm10.2-1.5l-2.2-11 7.8-6.6 4.1 20.8-9.7-3.2z"/></g></svg>